<?xml version="1.0" encoding="UTF-8"?>
<svg width="125px" height="125px" viewBox="0 0 125 125" version="1.1" xmlns="http://www.w3.org/2000/svg" xmlns:xlink="http://www.w3.org/1999/xlink">
    <!-- Generator: Sketch 43.2 (39069) - http://www.bohemiancoding.com/sketch -->
    <title>FRIAA logo-green</title>
    <desc>Created with Sketch.</desc>
    <defs>
        <polygon id="path-1" points="0.0714285714 125 0.0714285714 0.971428571 124.028571 0.971428571 124.028571 125"></polygon>
    </defs>
    <g id="Symbols" stroke="none" stroke-width="1" fill="none" fill-rule="evenodd">
        <g id="FRIAA-logo-green">
            <g>
                <g id="Group-3">
                    <mask id="mask-2" fill="white">
                        <use xlink:href="#path-1"></use>
                    </mask>
                    <g id="Clip-2"></g>
                    <path d="M61.9714286,0.971428571 C96.2559524,0.971428571 124.028571,28.7428571 124.028571,62.9428571 C124.028571,97.227381 96.2559524,125 61.9714286,125 C27.7714286,125 0,97.227381 0,62.9428571 C0,28.7428571 27.7714286,0.971428571 61.9714286,0.971428571" id="Fill-1" fill="#55522C" mask="url(#mask-2)"></path>
                </g>
                <polyline id="Fill-4" fill="#FFFFFF" points="13.4571429 50.1714286 6.51428571 48.2 7.54285714 44.6 8.65714286 44.8571429 7.97142857 47.2571429 9.68571429 47.6857143 10.2857143 45.4571429 11.4 45.8 10.8 48.0285714 13.8 48.8857143 13.4571429 50.1714286"></polyline>
                <path d="M11.4,44.5142857 C10.7142857,44.1714286 10.2,43.9142857 9.77142857,43.6571429 C9.34285714,43.4857143 9.08571429,43.2285714 8.91428571,42.9714286 C8.74285714,42.7142857 8.57142857,42.3714286 8.57142857,42.0285714 C8.57142857,41.6857143 8.65714286,41.3428571 8.82857143,40.9142857 C9,40.4857143 9.17142857,40.1428571 9.42857143,39.8857143 C9.68571429,39.7142857 9.94285714,39.5428571 10.3714286,39.4571429 C10.6285714,39.4571429 10.9714286,39.4571429 11.4,39.5428571 C11.9142857,39.6285714 12.4285714,39.8 13.2,40.1428571 C13.8857143,40.4 14.4,40.6571429 14.8285714,40.9142857 C15.2571429,41.1714286 15.5142857,41.3428571 15.6857143,41.6 C15.9428571,41.9428571 16.0285714,42.2 16.0285714,42.5428571 C16.1142857,42.8857143 16.0285714,43.2285714 15.8571429,43.7428571 C15.6857143,44.1714286 15.4285714,44.4285714 15.1714286,44.6857143 C15,44.9428571 14.6571429,45.0285714 14.3142857,45.1142857 C13.9714286,45.2 13.6285714,45.2 13.2,45.0285714 C12.7714286,44.9428571 12.1714286,44.7714286 11.4,44.5142857 Z M11.9142857,43.2285714 C13.0285714,43.6571429 13.8,43.8285714 14.1428571,43.8285714 C14.4857143,43.8285714 14.6571429,43.6571429 14.8285714,43.3142857 C15,42.9714286 14.9142857,42.6285714 14.6571429,42.4571429 C14.4857143,42.2 13.8,41.8571429 12.6857143,41.4285714 C11.5714286,41 10.8,40.7428571 10.4571429,40.7428571 C10.1142857,40.7428571 9.94285714,40.9142857 9.77142857,41.2571429 C9.6,41.6 9.68571429,41.9428571 9.94285714,42.2 C10.2,42.3714286 10.8,42.7142857 11.9142857,43.2285714 L11.9142857,43.2285714 Z" id="Fill-5" fill="#FFFFFF"></path>
                <path d="M16.9714286,40.4 L10.7142857,36.8857143 L11.9142857,34.7428571 C12.2571429,34.1428571 12.6,33.7142857 13.0285714,33.6285714 C13.4571429,33.4571429 13.9714286,33.5428571 14.5714286,33.8857143 C14.9142857,34.1428571 15.2571429,34.4 15.3428571,34.6571429 C15.5142857,35 15.5142857,35.2571429 15.4285714,35.6 C15.8571429,35.0857143 16.5428571,35.0857143 17.3142857,35.5142857 C17.4,35.5142857 17.4,35.5142857 17.4,35.6 L18.2571429,36.0285714 C18.5142857,36.1142857 18.6857143,36.2 18.8571429,36.2 C19.0285714,36.2857143 19.2,36.2857143 19.3714286,36.2 L18.6,37.5714286 C18.4285714,37.5714286 18.3428571,37.4857143 18.1714286,37.4857143 C18,37.4 17.8285714,37.3142857 17.5714286,37.1428571 L16.8857143,36.8 L16.7142857,36.7142857 C16.3714286,36.4571429 16.0285714,36.4571429 15.8571429,36.5428571 C15.6,36.5428571 15.3428571,36.8857143 15.0857143,37.3142857 L14.8285714,37.7428571 L17.5714286,39.2857143 L16.9714286,40.4 Z M13.9714286,37.2285714 L14.4,36.5428571 C14.5714286,36.2 14.6571429,35.9428571 14.5714286,35.7714286 C14.4857143,35.5142857 14.3142857,35.3428571 13.9714286,35.0857143 C13.6285714,34.9142857 13.3714286,34.9142857 13.2,35 C12.9428571,35 12.7714286,35.2571429 12.5142857,35.6857143 L12.2571429,36.2 L13.9714286,37.2285714 L13.9714286,37.2285714 Z" id="Fill-6" fill="#FFFFFF"></path>
                <polyline id="Fill-7" fill="#FFFFFF" points="19.7142857 35.6857143 13.8857143 31.4 16.0285714 28.4 16.9714286 29.0857143 15.6 31.0571429 16.9714286 32 18.2571429 30.2 19.2 30.8857143 17.9142857 32.6857143 19.5428571 33.8857143 20.9142857 31.9142857 21.9428571 32.6 19.7142857 35.6857143"></polyline>
                <path d="M20.4857143,30.2857143 L21.4285714,29.2571429 L21.7714286,29.5142857 C22.1142857,29.8571429 22.3714286,29.9428571 22.5428571,30.0285714 C22.7142857,30.0285714 22.8857143,29.9428571 23.1428571,29.6857143 C23.3142857,29.5142857 23.4,29.2571429 23.4,29.0857143 C23.3142857,28.9142857 23.2285714,28.6571429 23.0571429,28.4857143 C22.8857143,28.4 22.7142857,28.3142857 22.5428571,28.2285714 C22.2857143,28.2285714 22.0285714,28.3142857 21.6,28.4 L20.8285714,28.5714286 C20.0571429,28.7428571 19.6285714,28.8285714 19.2857143,28.7428571 C18.9428571,28.7428571 18.6857143,28.5714286 18.3428571,28.3142857 C17.9142857,27.8857143 17.6571429,27.4571429 17.6571429,26.9428571 C17.5714286,26.4285714 17.8285714,26 18.1714286,25.4857143 C18.6,24.9714286 19.1142857,24.7142857 19.6285714,24.7142857 C20.1428571,24.6285714 20.6571429,24.8857143 21.1714286,25.3142857 L21.2571429,25.4 L21.3428571,25.4857143 L20.4857143,26.4285714 L20.4,26.3428571 C20.0571429,26.0857143 19.8,25.9142857 19.6285714,25.9142857 C19.3714286,25.9142857 19.2,26 19.0285714,26.2571429 C18.8571429,26.4285714 18.7714286,26.6 18.8571429,26.7714286 C18.8571429,26.9428571 18.9428571,27.1142857 19.1142857,27.2 C19.3714286,27.4571429 19.8,27.4571429 20.4,27.2857143 L21.2571429,27.0285714 C21.8571429,26.8571429 22.3714286,26.7714286 22.7142857,26.8571429 C23.0571429,26.9428571 23.4857143,27.1142857 23.8285714,27.4571429 C24.3428571,27.8857143 24.6,28.3142857 24.6,28.8285714 C24.6,29.3428571 24.4285714,29.8571429 24,30.3714286 C23.4857143,30.9714286 22.9714286,31.2285714 22.4571429,31.2285714 C21.9428571,31.3142857 21.4285714,31.0571429 20.8285714,30.5428571 C20.7428571,30.4571429 20.6571429,30.3714286 20.5714286,30.2857143 L20.4857143,30.2857143" id="Fill-8" fill="#FFFFFF"></path>
                <polyline id="Fill-9" fill="#FFFFFF" points="26.7428571 27.1142857 22.5428571 22.7428571 21.4285714 23.7714286 20.6571429 22.9142857 23.9142857 19.9142857 24.6857143 20.7714286 23.5714286 21.8 27.6857143 26.1714286 26.7428571 27.1142857"></polyline>
                <path d="M31.2,23.0857143 L27.0857143,17.2571429 L28.9714286,15.8 C29.5714286,15.3714286 30.0857143,15.2 30.5142857,15.2857143 C30.9428571,15.3714286 31.3714286,15.6285714 31.8,16.1428571 C32.0571429,16.5714286 32.2285714,16.9142857 32.2285714,17.2571429 C32.2285714,17.5142857 32.1428571,17.8571429 31.8857143,18.0285714 C32.4857143,17.8571429 33.0857143,18.1142857 33.6,18.8 L33.6857143,18.8857143 L34.2857143,19.6571429 C34.4571429,19.8285714 34.5428571,20 34.7142857,20.0857143 C34.8857143,20.2571429 34.9714286,20.2571429 35.1428571,20.3428571 L33.8571429,21.2 C33.7714286,21.1142857 33.6857143,21.0285714 33.6,20.9428571 C33.4285714,20.7714286 33.3428571,20.6 33.0857143,20.3428571 L32.6571429,19.7428571 L32.5714286,19.6571429 C32.3142857,19.3142857 32.0571429,19.0571429 31.8857143,19.0571429 C31.6285714,19.0571429 31.2857143,19.2285714 30.8571429,19.4857143 L30.4285714,19.7428571 L32.3142857,22.4 L31.2,23.0857143 Z M29.8285714,18.9714286 L30.5142857,18.5428571 C30.8571429,18.2857143 31.0285714,18.0285714 31.0285714,17.8571429 C31.0285714,17.6 30.9428571,17.3428571 30.7714286,17 C30.5142857,16.7428571 30.3428571,16.5714286 30.0857143,16.5714286 C29.9142857,16.5714286 29.5714286,16.6571429 29.2285714,16.9142857 L28.7142857,17.2571429 L29.8285714,18.9714286 L29.8285714,18.9714286 Z" id="Fill-10" fill="#FFFFFF"></path>
                <polyline id="Fill-11" fill="#FFFFFF" points="35.8285714 19.9142857 32.1428571 13.7428571 35.4 11.8571429 36 12.8857143 33.9428571 14.0857143 34.8 15.5428571 36.6857143 14.4285714 37.2857143 15.3714286 35.3142857 16.4857143 36.3428571 18.2 38.4857143 17 39.0857143 18.0285714 35.8285714 19.9142857"></polyline>
                <path d="M38.8285714,15.4571429 L40.0285714,14.8571429 L40.2,15.2857143 C40.3714286,15.7142857 40.5428571,15.9714286 40.7142857,16.0571429 C40.8857143,16.1428571 41.1428571,16.1428571 41.4,16.0571429 C41.6571429,15.9714286 41.7428571,15.8 41.8285714,15.6285714 C41.9142857,15.3714286 41.9142857,15.2 41.8285714,14.9428571 C41.7428571,14.6857143 41.5714286,14.6 41.4,14.5142857 C41.3142857,14.3428571 40.9714286,14.2571429 40.5428571,14.1714286 L39.7714286,14 C39,13.9142857 38.5714286,13.7428571 38.3142857,13.5714286 C38.0571429,13.4 37.8,13.1428571 37.6285714,12.7142857 C37.3714286,12.2 37.3714286,11.6857143 37.5428571,11.2571429 C37.7142857,10.7428571 38.1428571,10.4 38.7428571,10.1428571 C39.3428571,9.88571429 39.8571429,9.8 40.3714286,9.97142857 C40.8,10.2285714 41.1428571,10.5714286 41.4857143,11.2571429 C41.4857143,11.2571429 41.4857143,11.3428571 41.5714286,11.3428571 L41.5714286,11.4285714 L40.3714286,12.0285714 L40.2857143,11.8571429 C40.2,11.4285714 40.0285714,11.2571429 39.7714286,11.1714286 C39.6,11 39.4285714,11 39.0857143,11.1714286 C38.9142857,11.2571429 38.8285714,11.3428571 38.7428571,11.5142857 C38.6571429,11.6857143 38.6571429,11.8571429 38.7428571,12.1142857 C38.9142857,12.3714286 39.2571429,12.5428571 39.9428571,12.7142857 L40.8857143,12.8 C41.4857143,12.9714286 41.9142857,13.0571429 42.2571429,13.3142857 C42.5142857,13.4857143 42.7714286,13.8285714 42.9428571,14.2571429 C43.2857143,14.8571429 43.2857143,15.3714286 43.1142857,15.8857143 C42.9428571,16.4 42.5142857,16.7428571 41.8285714,17 C41.2285714,17.3428571 40.6285714,17.3428571 40.1142857,17.1714286 C39.6857143,17 39.2571429,16.5714286 38.9142857,15.8 C38.9142857,15.8 38.8285714,15.6285714 38.8285714,15.4571429" id="Fill-12" fill="#FFFFFF"></path>
                <path d="M43.4571429,12.2 C43.2857143,11.5142857 43.1142857,10.9142857 43.0285714,10.4 C42.9428571,9.97142857 42.9428571,9.62857143 43.0285714,9.37142857 C43.1142857,8.94285714 43.2857143,8.68571429 43.4571429,8.42857143 C43.7142857,8.25714286 44.0571429,8 44.4857143,7.91428571 C45,7.74285714 45.3428571,7.65714286 45.6857143,7.74285714 C46.0285714,7.74285714 46.2857143,7.91428571 46.6285714,8.17142857 C46.8,8.34285714 47.0571429,8.6 47.2285714,9.02857143 C47.4857143,9.45714286 47.6571429,10.0571429 47.9142857,10.7428571 C48.1714286,11.4285714 48.3428571,12.0285714 48.4285714,12.5428571 C48.5142857,12.9714286 48.5142857,13.3142857 48.4285714,13.5714286 C48.3428571,14 48.1714286,14.2571429 47.9142857,14.5142857 C47.6571429,14.7714286 47.3142857,14.9428571 46.8857143,15.1142857 C46.4571429,15.2 46.0285714,15.2857143 45.7714286,15.2 C45.4285714,15.2 45.0857143,15.0285714 44.8285714,14.7714286 C44.5714286,14.6 44.4,14.3428571 44.1428571,13.9142857 C43.9714286,13.4857143 43.7142857,12.9714286 43.4571429,12.2 Z M44.8285714,11.7714286 C45.1714286,12.8857143 45.4285714,13.5714286 45.6857143,13.8285714 C45.9428571,14.0857143 46.2,14.1714286 46.5428571,14.0857143 C46.8857143,13.9142857 47.1428571,13.7428571 47.1428571,13.4 C47.1428571,13.0571429 46.9714286,12.2857143 46.6285714,11.1714286 C46.2857143,10.0571429 45.9428571,9.37142857 45.6857143,9.11428571 C45.5142857,8.85714286 45.1714286,8.77142857 44.8285714,8.85714286 C44.4857143,9.02857143 44.3142857,9.2 44.3142857,9.54285714 C44.2285714,9.88571429 44.4,10.6571429 44.8285714,11.7714286 L44.8285714,11.7714286 Z" id="Fill-13" fill="#FFFFFF"></path>
                <path d="M48.8571429,6.8 L50.1428571,6.54285714 L51.0857143,11.3428571 C51.1714286,11.8571429 51.2571429,12.2857143 51.4285714,12.4571429 C51.6,12.6285714 51.8571429,12.6285714 52.2,12.5428571 C52.5428571,12.5428571 52.8,12.3714286 52.8857143,12.1142857 C52.9714286,11.9428571 52.9714286,11.5142857 52.8857143,11 L52.0285714,6.2 L53.3142857,5.94285714 L54.1714286,10.9142857 C54.2571429,11.3428571 54.3428571,11.6857143 54.3428571,11.9428571 C54.2571429,12.2 54.2571429,12.3714286 54.1714286,12.5428571 C54,12.8857143 53.7428571,13.0571429 53.4857143,13.3142857 C53.2285714,13.4857143 52.8,13.5714286 52.3714286,13.6571429 C51.6,13.8285714 51,13.7428571 50.5714286,13.4857143 C50.1428571,13.1428571 49.8857143,12.5428571 49.7142857,11.6857143 L48.8571429,6.8" id="Fill-14" fill="#FFFFFF"></path>
                <path d="M55.7142857,12.8 L55.2,5.6 L57.6,5.42857143 C58.3714286,5.42857143 58.8857143,5.51428571 59.2285714,5.77142857 C59.5714286,6.02857143 59.7428571,6.54285714 59.8285714,7.14285714 C59.8285714,7.65714286 59.7428571,8 59.6571429,8.25714286 C59.4857143,8.6 59.2285714,8.77142857 58.8857143,8.85714286 C59.5714286,8.94285714 59.9142857,9.45714286 60,10.4 C60,10.4 60,10.4 60,10.4857143 L60.1714286,11.4285714 C60.1714286,11.6857143 60.2571429,11.8571429 60.2571429,12.0285714 C60.3428571,12.2 60.4285714,12.3714286 60.6,12.4571429 L58.9714286,12.5428571 C58.9714286,12.4571429 58.8857143,12.2857143 58.8857143,12.2 C58.8,12.0285714 58.8,11.7714286 58.8,11.4285714 L58.7142857,10.7428571 L58.7142857,10.4857143 C58.6285714,10.1428571 58.5428571,9.8 58.3714286,9.71428571 C58.2,9.54285714 57.7714286,9.45714286 57.2571429,9.54285714 L56.8285714,9.54285714 L57,12.7142857 L55.7142857,12.8 Z M56.7428571,8.6 L57.5142857,8.51428571 C57.8571429,8.51428571 58.1142857,8.34285714 58.2857143,8.25714286 C58.4571429,8.08571429 58.4571429,7.74285714 58.4571429,7.4 C58.4571429,6.97142857 58.2857143,6.8 58.1142857,6.62857143 C57.9428571,6.45714286 57.6857143,6.45714286 57.2571429,6.45714286 L56.5714286,6.54285714 L56.7428571,8.6 L56.7428571,8.6 Z" id="Fill-15" fill="#FFFFFF"></path>
                <path d="M64.2857143,9.97142857 L65.5714286,9.97142857 L65.5714286,10.1428571 L65.5714286,10.3142857 C65.5714286,11.0857143 65.4,11.6857143 65.0571429,12.1142857 C64.6285714,12.5428571 64.1130952,12.7142857 63.3428571,12.7142857 C63,12.7142857 62.7428571,12.6285714 62.4857143,12.5428571 C62.2285714,12.4571429 62.0571429,12.2857143 61.8857143,12.1142857 C61.6285714,11.8571429 61.4571429,11.5142857 61.3714286,11.0857143 C61.2857143,10.5714286 61.2857143,9.88571429 61.2857143,8.77142857 C61.2857143,8 61.3714286,7.4 61.4571429,6.97142857 C61.5428571,6.54285714 61.6285714,6.2 61.7142857,6.02857143 C61.9714286,5.68571429 62.2285714,5.42857143 62.4857143,5.34285714 C62.7428571,5.17142857 63.1702381,5.08571429 63.6,5.08571429 C64.2857143,5.17142857 64.8857143,5.34285714 65.1428571,5.77142857 C65.4857143,6.11428571 65.6571429,6.71428571 65.6571429,7.57142857 L64.2857143,7.57142857 L64.2857143,7.4 C64.3714286,6.97142857 64.2857143,6.71428571 64.2,6.45714286 C64.0285714,6.28571429 63.8571429,6.2 63.6,6.2 C63.2571429,6.2 63.0857143,6.28571429 62.9142857,6.54285714 C62.827381,6.8 62.7428571,7.57142857 62.6571429,8.77142857 C62.6571429,10.0571429 62.6571429,10.8285714 62.827381,11.1714286 C62.9142857,11.4285714 63.0857143,11.6 63.4285714,11.6 C63.7714286,11.6 63.9428571,11.5142857 64.0285714,11.2571429 C64.2,11.0857143 64.2857143,10.6571429 64.2857143,10.0571429 L64.2857143,9.97142857" id="Fill-16" fill="#FFFFFF"></path>
                <polyline id="Fill-17" fill="#FFFFFF" points="66.6 12.6285714 67.3714286 5.51428571 71.0559524 5.94285714 70.9714286 7.14285714 68.5714286 6.8 68.4 8.51428571 70.6285714 8.77142857 70.4571429 9.88571429 68.3142857 9.62857143 68.0571429 11.6 70.4571429 11.8571429 70.2857143 13.1428571 66.6 12.6285714"></polyline>
                <polyline id="Fill-18" fill="#FFFFFF" points="73.6285714 13.8285714 75.2571429 6.8 76.5428571 7.05714286 74.9142857 14.0857143 73.6285714 13.8285714"></polyline>
                <polyline id="Fill-19" fill="#FFFFFF" points="76.2 14.4285714 78.5142857 7.57142857 80.4 8.17142857 79.8 12.9714286 82.2857143 8.85714286 84.1714286 9.45714286 81.8571429 16.3142857 80.6571429 15.8857143 82.7130952 9.88571429 79.4571429 15.4571429 78.5988095 15.2 79.3714286 8.68571429 77.4 14.7714286 76.2 14.4285714"></polyline>
                <path d="M82.9714286,16.9142857 L86.1428571,10.4 L88.2857143,11.4285714 C88.8857143,11.7714286 89.3130952,12.2 89.4,12.6285714 C89.5714286,12.9714286 89.4857143,13.5714286 89.1428571,14.1714286 C88.8,14.8571429 88.4571429,15.2 88.0285714,15.3714286 C87.5142857,15.5428571 87,15.4571429 86.4,15.2 L85.5416667,14.7714286 L84.1714286,17.5142857 L82.9714286,16.9142857 Z M85.9714286,13.8285714 L86.4,14.0857143 C86.8285714,14.2571429 87.0857143,14.3428571 87.3428571,14.2571429 C87.6,14.1714286 87.7714286,14 87.9428571,13.6571429 C88.1142857,13.2285714 88.2,12.9714286 88.1142857,12.8 C88.0285714,12.5428571 87.7714286,12.3714286 87.427381,12.2 L86.9142857,11.9428571 L85.9714286,13.8285714 L85.9714286,13.8285714 Z" id="Fill-20" fill="#FFFFFF"></path>
                <path d="M87.6857143,19.3142857 L91.5428571,13.2285714 L93.6,14.5142857 C94.2,14.8571429 94.5428571,15.2857143 94.6285714,15.7142857 C94.8,16.1428571 94.6285714,16.6571429 94.2857143,17.1714286 C94.0285714,17.6 93.7714286,17.8571429 93.5142857,18.0285714 C93.1714286,18.1142857 92.9142857,18.1142857 92.5714286,17.9428571 C93,18.4571429 93,19.1428571 92.5714286,19.9142857 C92.5714286,19.9142857 92.4845238,19.9142857 92.4845238,20 L92.0571429,20.7714286 C91.8857143,21.0285714 91.8,21.2 91.7142857,21.3714286 L91.7142857,21.8857143 L90.4285714,21.0285714 C90.4285714,20.9428571 90.5142857,20.7714286 90.6,20.6 C90.6,20.5142857 90.7714286,20.2571429 90.9428571,20 L91.2857143,19.4 L91.3714286,19.2285714 C91.6285714,18.8857143 91.7142857,18.5428571 91.6285714,18.3714286 C91.5428571,18.1142857 91.2857143,17.8571429 90.8571429,17.5142857 L90.4285714,17.3428571 L88.7142857,20 L87.6857143,19.3142857 Z M91.0285714,16.4857143 L91.6285714,16.9142857 C91.9714286,17.0857143 92.2285714,17.1714286 92.4845238,17.0857143 C92.6571429,17.0857143 92.9142857,16.9142857 93.0845238,16.5714286 C93.3428571,16.2285714 93.3428571,15.9714286 93.3428571,15.8 C93.2571429,15.5428571 93,15.3714286 92.6571429,15.1142857 L92.1428571,14.7714286 L91.0285714,16.4857143 L91.0285714,16.4857143 Z" id="Fill-21" fill="#FFFFFF"></path>
                <path d="M94.2857143,19.4 C94.7142857,18.8 95.1428571,18.3714286 95.4857143,18.0285714 C95.8285714,17.7714286 96.0857143,17.5142857 96.3428571,17.4285714 C96.6857143,17.3428571 97.0285714,17.2571429 97.3714286,17.3428571 C97.7142857,17.4285714 98.0571429,17.6 98.4,17.8571429 C98.8285714,18.2 99.0845238,18.4571429 99.1714286,18.7142857 C99.3428571,19.0571429 99.4285714,19.4 99.3428571,19.7428571 C99.3428571,20 99.2571429,20.3428571 99,20.7714286 C98.7428571,21.2 98.4,21.7142857 97.9714286,22.3142857 C97.5428571,22.9142857 97.1142857,23.3428571 96.7714286,23.6857143 C96.4285714,24.0285714 96.1714286,24.2 95.8285714,24.2857143 C95.4857143,24.4571429 95.1428571,24.4571429 94.8857143,24.3714286 C94.5428571,24.3714286 94.2,24.1142857 93.7714286,23.8571429 C93.427381,23.6 93.1714286,23.2571429 93,23 C92.9142857,22.7428571 92.8285714,22.4 92.8285714,21.9714286 C92.9142857,21.7142857 93,21.3714286 93.2571429,20.9428571 C93.427381,20.5142857 93.7714286,20.0857143 94.2857143,19.4 Z M95.3130952,20.2571429 C94.6285714,21.2 94.2,21.8857143 94.1142857,22.1428571 C94.0285714,22.4857143 94.2,22.8285714 94.4571429,23 C94.8,23.2571429 95.0571429,23.2571429 95.3130952,23.0857143 C95.6571429,23 96.1714286,22.4 96.8571429,21.4571429 C97.6285714,20.5142857 98.0571429,19.8285714 98.0571429,19.5714286 C98.1416667,19.2285714 98.0571429,18.9714286 97.8,18.7142857 C97.4571429,18.4571429 97.2,18.4571429 96.8571429,18.6285714 C96.6,18.8 96.0857143,19.3142857 95.3130952,20.2571429 L95.3130952,20.2571429 Z" id="Fill-22" fill="#FFFFFF"></path>
                <polyline id="Fill-23" fill="#FFFFFF" points="97.4571429 26.7714286 101.571429 20.6 102.514286 21.6285714 99.0845238 26.4285714 103.971429 23.1714286 104.914286 24.2 98.6571429 28.0571429 97.4571429 26.7714286"></polyline>
                <polyline id="Fill-24" fill="#FFFFFF" points="100.285714 29.6857143 105.942857 25.2285714 108.257143 28.1428571 107.314286 28.8285714 105.771429 27.0285714 104.485714 28.0571429 105.857143 29.7714286 105 30.4571429 103.628571 28.7428571 102.085714 29.9428571 103.542857 31.9142857 102.6 32.6 100.285714 29.6857143"></polyline>
                <polyline id="Fill-25" fill="#FFFFFF" points="103.19881 33.4571429 109.285714 29.6 110.314286 31.3142857 106.970238 34.6571429 111.428571 32.9428571 112.457143 34.6571429 106.371429 38.6 105.684524 37.4857143 111.171429 34.0571429 105 36.3714286 104.571429 35.6857143 109.285714 31.0571429 103.885714 34.5714286 103.19881 33.4571429"></polyline>
                <polyline id="Fill-26" fill="#FFFFFF" points="106.970238 39.6285714 113.571429 36.6285714 115.114286 39.9714286 114 40.4857143 113.057143 38.3428571 111.514286 39.0285714 112.457143 41 111.428571 41.5142857 110.485714 39.4571429 108.685714 40.3142857 109.628571 42.5428571 108.6 43.0571429 106.970238 39.6285714"></polyline>
                <polyline id="Fill-27" fill="#FFFFFF" points="109.028571 43.9142857 115.885714 41.6857143 116.314286 42.9714286 112.114286 46.3142857 116.914286 44.6857143 117.342857 45.8857143 110.485714 48.2 110.057143 46.9142857 114.257143 43.4857143 109.457143 45.1142857 109.028571 43.9142857"></polyline>
                <polyline id="Fill-28" fill="#FFFFFF" points="111.085714 50.3428571 116.914286 48.9714286 116.571429 47.4285714 117.684524 47.1714286 118.714286 51.5428571 117.6 51.8 117.257143 50.2571429 111.342857 51.6285714 111.085714 50.3428571"></polyline>
                <path d="M5.82857143,77.5130952 L13.7142857,77.2571429 L14.1428571,79.0571429 L7.2,82.7428571 L6.85714286,81.2845238 L8.57142857,80.4285714 L8.14285714,78.7988095 L6.25714286,78.9702381 L5.82857143,77.5130952 Z M9.34285714,78.7154762 L9.68571429,79.9154762 L12.6,78.4571429 L9.34285714,78.7154762 L9.34285714,78.7154762 Z" id="Fill-29" fill="#FFFFFF"></path>
                <path d="M10.2,82.6559524 L10.8,83.9416667 L10.2857143,84.1142857 C9.85714286,84.372619 9.6,84.5416667 9.51428571,84.7142857 C9.42857143,84.8857143 9.42857143,85.1416667 9.51428571,85.4 C9.6,85.6583333 9.77142857,85.827381 10.0285714,85.9142857 C10.2,86 10.4571429,86 10.7142857,85.827381 C10.8857143,85.7416667 11.0571429,85.6583333 11.2285714,85.4857143 C11.3142857,85.3142857 11.4,84.972619 11.4857143,84.5416667 L11.6571429,83.6869048 C11.8285714,82.9142857 12,82.4 12.1714286,82.1428571 C12.3428571,81.8869048 12.6,81.6285714 13.0285714,81.4559524 C13.6285714,81.2011905 14.1428571,81.2011905 14.6571429,81.3702381 C15.1714286,81.5428571 15.5142857,81.9702381 15.7714286,82.5702381 C16.1142857,83.2559524 16.1142857,83.772619 15.9428571,84.2857143 C15.6857143,84.8 15.2571429,85.227381 14.6571429,85.4857143 C14.5714286,85.572619 14.4857143,85.572619 14.4857143,85.572619 L14.4,85.572619 L13.8,84.372619 L13.9714286,84.2857143 C14.4,84.1142857 14.6571429,83.9416667 14.7428571,83.772619 C14.8285714,83.5142857 14.8285714,83.3416667 14.7428571,83 C14.6571429,82.8285714 14.4857143,82.6559524 14.3142857,82.5702381 C14.1428571,82.5702381 13.9714286,82.5702381 13.7142857,82.6559524 C13.4571429,82.8285714 13.2,83.1702381 13.1142857,83.8559524 L13.1142857,83.9416667 L12.9428571,84.8857143 C12.8571429,85.4857143 12.6857143,86 12.4285714,86.3416667 C12.1714286,86.6 11.8285714,86.8583333 11.4,87.1130952 C10.8,87.3714286 10.2,87.4571429 9.68571429,87.2 C9.17142857,87.027381 8.74285714,86.6 8.48571429,85.9142857 C8.14285714,85.1416667 8.14285714,84.5416667 8.31428571,84.1142857 C8.57142857,83.6 9,83.1702381 9.77142857,82.8285714 C9.85714286,82.7428571 9.94285714,82.7428571 10.1142857,82.6559524 L10.2,82.6559524" id="Fill-30" fill="#FFFFFF"></path>
                <path d="M12.5142857,87.9714286 L13.2,89.1714286 L12.7714286,89.4297619 C12.4285714,89.6857143 12.1714286,89.9428571 12.0857143,90.1130952 C12,90.2845238 12,90.5428571 12.1714286,90.7154762 C12.2571429,90.9714286 12.5142857,91.1428571 12.6857143,91.2285714 C12.8571429,91.3154762 13.1142857,91.2285714 13.3714286,91.0571429 C13.6285714,90.9714286 13.7142857,90.7988095 13.8,90.6285714 C13.8857143,90.4571429 13.9714286,90.1988095 14.0571429,89.6857143 L14.0571429,88.827381 C14.1428571,88.0571429 14.3142857,87.5440476 14.4,87.2857143 C14.5714286,86.9416667 14.8285714,86.6857143 15.2571429,86.5142857 C15.7714286,86.1714286 16.2857143,86.0857143 16.8,86.2583333 C17.3142857,86.3416667 17.7428571,86.7714286 18.0857143,87.2857143 C18.4285714,87.9714286 18.5142857,88.4857143 18.4285714,88.9988095 C18.2571429,89.5130952 17.9142857,90.0297619 17.2285714,90.3714286 C17.1428571,90.3714286 17.1428571,90.4571429 17.0571429,90.4571429 C17.0571429,90.4571429 17.0571429,90.4571429 16.9714286,90.4571429 L16.2857143,89.3428571 L16.5428571,89.1714286 C16.8857143,88.9988095 17.0571429,88.827381 17.1428571,88.5714286 C17.2285714,88.4 17.2285714,88.1440476 17.0571429,87.8857143 C16.9714286,87.7130952 16.8,87.5440476 16.6285714,87.5440476 C16.4571429,87.4571429 16.2857143,87.4571429 16.0285714,87.627381 C15.7714286,87.8 15.6,88.227381 15.5142857,88.9130952 L15.5142857,89.8571429 C15.4285714,90.5428571 15.3428571,91.0571429 15.1714286,91.3988095 C15,91.7428571 14.6571429,91.9988095 14.2285714,92.2571429 C13.6285714,92.6011905 13.0285714,92.6845238 12.5142857,92.6011905 C12,92.4285714 11.5714286,91.9988095 11.1428571,91.3988095 C10.8,90.7154762 10.6285714,90.1130952 10.8,89.5988095 C10.9714286,89.0857143 11.4,88.5714286 12.0857143,88.227381 C12.1714286,88.1440476 12.3428571,88.0571429 12.5142857,87.9714286" id="Fill-31" fill="#FFFFFF"></path>
                <path d="M16.3714286,92.4285714 C17.0571429,91.9154762 17.5714286,91.5714286 18.0857143,91.3988095 C18.5142857,91.1428571 18.8571429,91.0571429 19.2,91.0571429 C19.5428571,91.0571429 19.8857143,91.0571429 20.2285714,91.2285714 C20.4857143,91.3988095 20.8285714,91.7428571 21.0857143,92.0845238 C21.4285714,92.5154762 21.6,92.9428571 21.6,93.2845238 C21.6857143,93.6285714 21.6,93.9702381 21.4285714,94.3142857 C21.3428571,94.5702381 21.0857143,94.9142857 20.7428571,95.2559524 C20.4,95.6 19.8857143,96.0285714 19.2857143,96.4559524 C18.6,96.8857143 18,97.227381 17.5714286,97.4857143 C17.1428571,97.6559524 16.8,97.827381 16.4571429,97.827381 C16.0285714,97.827381 15.6857143,97.7416667 15.4285714,97.572619 C15.0857143,97.4 14.8285714,97.1416667 14.5714286,96.7142857 C14.2285714,96.2857143 14.0571429,95.9416667 14.0571429,95.6 C13.9714286,95.2559524 13.9714286,94.9142857 14.1428571,94.4869048 C14.3142857,94.2285714 14.4857143,93.9702381 14.8285714,93.6285714 C15.2571429,93.2845238 15.7714286,92.8571429 16.3714286,92.4285714 Z M17.2285714,93.6285714 C16.2,94.3142857 15.6,94.8285714 15.4285714,95.1702381 C15.2571429,95.4285714 15.2571429,95.7702381 15.5142857,96.1142857 C15.6857143,96.372619 15.9428571,96.5416667 16.2857143,96.4559524 C16.7142857,96.372619 17.4,96.0285714 18.4285714,95.2559524 C19.4571429,94.5702381 20.0571429,94.0559524 20.2285714,93.7142857 C20.4,93.3702381 20.4,93.1142857 20.1428571,92.7702381 C19.9714286,92.4285714 19.6285714,92.3428571 19.2857143,92.4285714 C18.9428571,92.4285714 18.2571429,92.8571429 17.2285714,93.6285714 L17.2285714,93.6285714 Z" id="Fill-32" fill="#FFFFFF"></path>
                <path d="M21.2571429,100.485714 L22.2,101.513095 C22.1142857,101.513095 22.1142857,101.59881 22.0285714,101.59881 C22.0285714,101.685714 21.9428571,101.685714 21.9428571,101.685714 C21.2571429,102.285714 20.6571429,102.542857 20.0571429,102.542857 C19.5428571,102.542857 18.9428571,102.285714 18.5142857,101.685714 C18.2571429,101.344048 18.0857143,101.085714 18,100.827381 C17.9142857,100.571429 17.8285714,100.313095 17.9142857,100.057143 C17.9142857,99.7130952 18.0857143,99.2857143 18.3428571,98.9416667 C18.6857143,98.5142857 19.2857143,98 20.1428571,97.227381 C20.7428571,96.7142857 21.2571429,96.372619 21.6,96.1142857 C22.0285714,95.8559524 22.3714286,95.6869048 22.6285714,95.6869048 C23.0571429,95.6 23.4,95.6 23.7428571,95.7702381 C24,95.8559524 24.3428571,96.1142857 24.6,96.4559524 C25.1142857,97.0559524 25.3714286,97.6559524 25.2857143,98.1714286 C25.2,98.6857143 24.7714286,99.2857143 24.0857143,99.8857143 L23.2285714,98.7714286 L23.4,98.6857143 C23.6571429,98.427381 23.9142857,98.1714286 23.9142857,97.9142857 C24,97.6559524 24,97.4857143 23.7428571,97.227381 C23.5714286,96.972619 23.3142857,96.8857143 22.9714286,96.972619 C22.7142857,97.0559524 22.1142857,97.4857143 21.0857143,98.3416667 C20.0571429,99.2 19.4571429,99.8 19.2857143,100.144048 C19.1142857,100.4 19.2,100.657143 19.3714286,100.913095 C19.6285714,101.171429 19.8,101.257143 20.0571429,101.171429 C20.3142857,101.171429 20.7428571,100.913095 21.1714286,100.485714 L21.2571429,100.485714" id="Fill-33" fill="#FFFFFF"></path>
                <polyline id="Fill-34" fill="#FFFFFF" points="21.3428571 104.428571 26.6571429 98.9416667 27.6857143 99.8857143 22.3714286 105.370238 21.3428571 104.428571"></polyline>
                <path d="M23.4,106.228571 L29.7428571,101.685714 L31.2,102.971429 L27.3428571,109.828571 L26.2285714,108.8 L27.2571429,107.170238 L25.9714286,106.057143 L24.4285714,107.255952 L23.4,106.228571 Z M26.9142857,105.370238 L27.8571429,106.142857 L29.5714286,103.39881 L26.9142857,105.370238 L26.9142857,105.370238 Z" id="Fill-35" fill="#FFFFFF"></path>
                <polyline id="Fill-36" fill="#FFFFFF" points="28.9714286 110.685714 32.7428571 105.542857 31.4571429 104.515476 32.1428571 103.571429 36 106.314286 35.2285714 107.342857 33.9428571 106.314286 30.1714286 111.541667 28.9714286 110.685714"></polyline>
                <polyline id="Fill-37" fill="#FFFFFF" points="32.5714286 113.085714 36.5142857 106.484524 37.7142857 107.255952 33.7714286 113.771429 32.5714286 113.085714"></polyline>
                <path d="M36.8571429,111.114286 C37.2,110.341667 37.5428571,109.828571 37.8,109.4 C38.0571429,108.972619 38.4,108.714286 38.5714286,108.541667 C39,108.286905 39.3428571,108.2 39.6857143,108.2 C40.0285714,108.2 40.3714286,108.286905 40.8857143,108.541667 C41.3142857,108.714286 41.6571429,108.972619 41.8285714,109.228571 C42.0857143,109.485714 42.1714286,109.828571 42.2571429,110.255952 C42.3428571,110.514286 42.2571429,110.941667 42.0857143,111.371429 C42,111.885714 41.7428571,112.485714 41.4,113.171429 C41.0571429,113.944048 40.7142857,114.457143 40.4571429,114.885714 C40.2,115.313095 39.9428571,115.571429 39.6857143,115.742857 C39.3428571,115.99881 39,116.084524 38.6571429,116.084524 C38.3142857,116.084524 37.8857143,115.99881 37.4571429,115.742857 C37.0285714,115.571429 36.6857143,115.313095 36.4285714,115.057143 C36.2571429,114.79881 36.0857143,114.457143 36,114.029762 C36,113.771429 36,113.344048 36.1714286,112.913095 C36.3428571,112.4 36.5142857,111.8 36.8571429,111.114286 Z M38.2285714,111.713095 C37.7142857,112.827381 37.4571429,113.59881 37.3714286,113.944048 C37.3714286,114.285714 37.6285714,114.542857 37.9714286,114.713095 C38.3142857,114.885714 38.5714286,114.885714 38.9142857,114.629762 C39.1714286,114.457143 39.5142857,113.771429 40.1142857,112.571429 C40.6285714,111.458333 40.8857143,110.685714 40.8857143,110.341667 C40.8857143,110 40.7142857,109.741667 40.3714286,109.572619 C40.0285714,109.4 39.6857143,109.4 39.4285714,109.655952 C39.1714286,109.828571 38.7428571,110.6 38.2285714,111.713095 L38.2285714,111.713095 Z" id="Fill-38" fill="#FFFFFF"></path>
                <polyline id="Fill-39" fill="#FFFFFF" points="41.3142857 117.284524 43.8 110.085714 45.1714286 110.514286 45.3428571 116.257143 47.0571429 111.2 48.3428571 111.627381 45.8571429 118.914286 44.4857143 118.40119 44.3142857 112.657143 42.6 117.80119 41.3142857 117.284524"></polyline>
                <path d="M50.1428571,115.99881 C50.3142857,115.229762 50.4857143,114.542857 50.6571429,114.113095 C50.8285714,113.59881 51,113.344048 51.1714286,113.085714 C51.4285714,112.827381 51.7714286,112.571429 52.1142857,112.485714 C52.4571429,112.4 52.8857143,112.4 53.3142857,112.485714 C53.8285714,112.657143 54.2571429,112.744048 54.5142857,113 C54.7714286,113.171429 55.0285714,113.513095 55.1142857,113.857143 C55.2857143,114.113095 55.2857143,114.542857 55.2857143,115.057143 C55.2857143,115.484524 55.2,116.171429 55.0285714,116.942857 C54.8571429,117.714286 54.6857143,118.40119 54.5142857,118.828571 C54.3428571,119.255952 54.1714286,119.6 54,119.855952 C53.6571429,120.114286 53.4,120.370238 53.0571429,120.455952 C52.7142857,120.542857 52.2857143,120.542857 51.7714286,120.370238 C51.3428571,120.286905 50.9142857,120.2 50.6571429,119.942857 C50.4,119.770238 50.1428571,119.428571 50.0571429,119.084524 C49.8857143,118.828571 49.8857143,118.40119 49.8857143,117.884524 C49.8857143,117.457143 49.9714286,116.771429 50.1428571,115.99881 Z M51.6,116.257143 C51.3428571,117.542857 51.2571429,118.314286 51.3428571,118.657143 C51.4285714,119.00119 51.6857143,119.170238 52.0285714,119.255952 C52.4571429,119.342857 52.7142857,119.255952 52.8857143,119.00119 C53.1428571,118.657143 53.3142857,117.884524 53.5714286,116.684524 C53.8285714,115.39881 53.9142857,114.629762 53.8285714,114.285714 C53.7428571,113.944048 53.4857143,113.685714 53.1428571,113.59881 C52.7142857,113.59881 52.4571429,113.685714 52.2857143,113.944048 C52.0285714,114.285714 51.7714286,115.057143 51.6,116.257143 L51.6,116.257143 Z" id="Fill-40" fill="#FFFFFF"></path>
                <polyline id="Fill-41" fill="#FFFFFF" points="55.9714286 120.714286 56.6571429 113.085714 60.6 113.427381 60.5142857 114.713095 57.9428571 114.457143 57.7714286 116.257143 60.1714286 116.515476 60.0857143 117.714286 57.6857143 117.457143 57.3428571 120.886905 55.9714286 120.714286"></polyline>
                <path d="M62.9142857,121.314286 L63.9428571,113.513095 L65.9142857,113.344048 L68.3142857,120.8 L66.7714286,120.970238 L66.2571429,119.084524 L64.5428571,119.170238 L64.3714286,121.141667 L62.9142857,121.314286 Z M64.7142857,118.057143 L65.9142857,117.970238 L65.0571429,114.79881 L64.7142857,118.057143 L64.7142857,118.057143 Z" id="Fill-42" fill="#FFFFFF"></path>
                <polyline id="Fill-43" fill="#FFFFFF" points="69.6 120.714286 68.0571429 113.257143 69.5142857 113 70.7142857 119.170238 73.2857143 118.742857 73.4571429 120.028571 69.6 120.714286"></polyline>
                <path d="M75,119.770238 L72.9428571,112.4 L75.0857143,111.8 C75.7714286,111.627381 76.2857143,111.627381 76.6285714,111.8 C77.0571429,112.058333 77.3142857,112.4 77.4857143,113.085714 C77.6559524,113.513095 77.6559524,113.944048 77.5714286,114.285714 C77.4857143,114.542857 77.3142857,114.79881 77.0571429,114.885714 C77.4,114.885714 77.7428571,114.971429 78,115.229762 C78.2571429,115.484524 78.5142857,115.829762 78.5988095,116.257143 C78.8571429,117.028571 78.8571429,117.714286 78.5988095,118.142857 C78.4285714,118.570238 78,118.914286 77.2285714,119.170238 L75,119.770238 Z M75.0857143,115.057143 L75.6,114.885714 C75.9428571,114.79881 76.1142857,114.629762 76.2,114.457143 C76.2857143,114.285714 76.2857143,113.944048 76.2,113.59881 C76.0285714,113.257143 75.9428571,113 75.7714286,112.913095 C75.6,112.827381 75.3428571,112.827381 75,112.913095 L74.5714286,113 L75.0857143,115.057143 Z M76.0285714,118.314286 L76.6285714,118.228571 C76.9714286,118.057143 77.2285714,117.970238 77.3142857,117.714286 C77.4,117.542857 77.4,117.19881 77.2285714,116.771429 C77.1428571,116.342857 76.9714286,115.99881 76.7130952,115.915476 C76.5428571,115.742857 76.2,115.742857 75.7714286,115.915476 L75.4285714,115.99881 L76.0285714,118.314286 L76.0285714,118.314286 Z" id="Fill-44" fill="#FFFFFF"></path>
                <polyline id="Fill-45" fill="#FFFFFF" points="80.8285714 118.057143 78 110.941667 81.6857143 109.485714 82.1142857 110.685714 79.8 111.627381 80.4845238 113.257143 82.6285714 112.4 83.0571429 113.513095 80.9142857 114.371429 81.6857143 116.342857 84.0857143 115.39881 84.5988095 116.59881 80.8285714 118.057143"></polyline>
                <path d="M85.9714286,116.084524 L82.5428571,109.314286 L84.7714286,108.114286 C85.4571429,107.770238 86.0571429,107.686905 86.4857143,107.770238 C86.9142857,107.941667 87.3428571,108.286905 87.6,108.885714 C87.8571429,109.314286 87.9428571,109.741667 87.9428571,110.085714 C87.8571429,110.427381 87.7714286,110.685714 87.427381,110.941667 C88.1142857,110.771429 88.7142857,111.114286 89.1428571,111.971429 L89.2285714,112.058333 L89.7428571,112.913095 C89.8285714,113.171429 90,113.344048 90.0857143,113.513095 C90.2571429,113.59881 90.4285714,113.685714 90.6,113.771429 L89.0571429,114.542857 C88.9714286,114.457143 88.8857143,114.285714 88.8,114.19881 C88.7142857,114.029762 88.5428571,113.771429 88.3702381,113.513095 L88.0285714,112.827381 L87.9428571,112.657143 C87.7714286,112.227381 87.5142857,112.058333 87.2571429,111.971429 C87,111.885714 86.6571429,111.971429 86.1428571,112.227381 L85.7142857,112.485714 L87.2571429,115.484524 L85.9714286,116.084524 Z M85.2,111.541667 L85.9714286,111.2 C86.3142857,110.941667 86.4857143,110.771429 86.5714286,110.514286 C86.6571429,110.341667 86.5714286,110 86.4,109.655952 C86.2285714,109.314286 86.0571429,109.141667 85.8,109.055952 C85.5416667,108.972619 85.2857143,109.055952 84.8571429,109.314286 L84.2559524,109.572619 L85.2,111.541667 L85.2,111.541667 Z" id="Fill-46" fill="#FFFFFF"></path>
                <polyline id="Fill-47" fill="#FFFFFF" points="92.5714286 112.571429 89.0571429 107.255952 87.6857143 108.114286 87 107.086905 90.9428571 104.515476 91.6285714 105.542857 90.2571429 106.484524 93.7714286 111.8 92.5714286 112.571429"></polyline>
                <path d="M95.4,110.941667 L91.8857143,103.915476 L93.427381,102.713095 L99.6,107.514286 L98.4,108.541667 L96.8571429,107.255952 L95.6571429,108.286905 L96.5142857,110 L95.4,110.941667 Z M95.0571429,107.255952 L96,106.484524 L93.5142857,104.342857 L95.0571429,107.255952 L95.0571429,107.255952 Z" id="Fill-48" fill="#FFFFFF"></path>
                <path d="M104.485714,105.714286 C103.542857,105.542857 102.771429,105.284524 102,104.857143 C101.228571,104.428571 100.542857,103.828571 99.8571429,103.142857 C99.2571429,102.542857 98.7428571,101.857143 98.4,101.085714 C97.9714286,100.313095 97.8,99.5416667 97.6285714,98.7714286 L98.2285714,98.1714286 C98.4,98.7714286 98.6571429,99.4571429 99.1714286,100.144048 C99.6,100.913095 100.2,101.59881 100.971429,102.371429 C101.657143,103.142857 102.428571,103.742857 103.028571,104.171429 C103.714286,104.684524 104.4,104.942857 105.084524,105.20119 L104.485714,105.714286" id="Fill-49" fill="#FFFFFF"></path>
                <polyline id="Fill-50" fill="#FFFFFF" points="104.828571 102.629762 99 97.6559524 101.657143 94.5702381 102.6 95.4285714 100.885714 97.4 102.257143 98.6 103.885714 96.7142857 104.742857 97.572619 103.19881 99.3714286 105.771429 101.59881 104.828571 102.629762"></polyline>
                <path d="M108.428571,98.5142857 L102.085714,94.1428571 L103.628571,92.0845238 C104.057143,91.3988095 104.485714,91.0571429 104.914286,90.9714286 C105.342857,90.8845238 105.942857,90.9714286 106.457143,91.3988095 C106.885714,91.7428571 107.142857,91.9988095 107.314286,92.3428571 C107.4,92.6011905 107.4,92.9428571 107.228571,93.2845238 C107.742857,92.8571429 108.428571,92.8571429 109.285714,93.3702381 C109.285714,93.3702381 109.285714,93.4571429 109.371429,93.4571429 L110.228571,93.9702381 C110.4,94.1428571 110.657143,94.2285714 110.828571,94.3142857 L111.342857,94.3142857 L110.4,95.6869048 C110.228571,95.6869048 110.142857,95.6 109.971429,95.5142857 C109.79881,95.4285714 109.628571,95.3428571 109.285714,95.1702381 L108.685714,94.6559524 L108.514286,94.5702381 C108.085714,94.3142857 107.828571,94.2285714 107.571429,94.3142857 C107.314286,94.3142857 107.057143,94.5702381 106.714286,95.0869048 L106.457143,95.5142857 L109.2,97.4 L108.428571,98.5142857 Z M105.6,94.9142857 L106.028571,94.2285714 C106.285714,93.8845238 106.371429,93.5428571 106.371429,93.3702381 C106.285714,93.1142857 106.114286,92.8571429 105.771429,92.6845238 C105.428571,92.4285714 105.171429,92.3428571 104.914286,92.4285714 C104.742857,92.4285714 104.485714,92.6845238 104.228571,93.0285714 L103.79881,93.6285714 L105.6,94.9142857 L105.6,94.9142857 Z" id="Fill-51" fill="#FFFFFF"></path>
                <polyline id="Fill-52" fill="#FFFFFF" points="112.028571 93.2011905 105.342857 89.3428571 106.028571 88.1440476 112.714286 91.9988095 112.028571 93.2011905"></polyline>
                <path d="M113.4,90.9714286 L107.314286,86 L108.085714,84.2857143 L115.79881,86.0857143 L115.114286,87.4571429 L113.228571,86.9416667 L112.457143,88.4857143 L114.085714,89.5988095 L113.4,90.9714286 Z M111.514286,87.7130952 L112.114286,86.6857143 L108.942857,85.827381 L111.514286,87.7130952 L111.514286,87.7130952 Z" id="Fill-53" fill="#FFFFFF"></path>
                <path d="M116.228571,85.3142857 L109.457143,81.2845238 L110.057143,79.4845238 L117.857143,80.2571429 L117.428571,81.7142857 L115.457143,81.4559524 L114.942857,83 L116.657143,83.9416667 L116.228571,85.3142857 Z M113.913095,82.4 L114.257143,81.2845238 L111.085714,80.8571429 L113.913095,82.4 L113.913095,82.4 Z" id="Fill-54" fill="#FFFFFF"></path>
                <path d="M120.257143,78.9702381 L120,79.8285714 C119.570238,79.3154762 118.971429,78.8845238 118.2,78.5428571 C117.514286,78.1130952 116.657143,77.8571429 115.628571,77.5988095 C114.6,77.2571429 113.657143,77.0857143 112.8,77.0857143 C111.942857,76.9988095 111.257143,77.0857143 110.571429,77.2571429 L110.828571,76.3988095 C111.6,76.1440476 112.371429,75.9714286 113.228571,75.8857143 C114.085714,75.8857143 114.855952,75.9714286 115.714286,76.227381 C116.657143,76.4857143 117.514286,76.8297619 118.285714,77.2571429 C118.971429,77.6857143 119.657143,78.2845238 120.257143,78.9702381" id="Fill-55" fill="#FFFFFF"></path>
                <path d="M5.82857143,62.9428571 L5.82857143,64.2297619 C5.57142857,64.2297619 5.4,64.0571429 5.4,63.7130952 C5.4,63.1130952 5.57142857,62.9428571 5.82857143,62.9428571 Z M6.68571429,61.0571429 C6.34285714,61.4857143 6.42857143,61.6571429 6.42857143,62.0857143 C6.25714286,62.0857143 6.17142857,61.9142857 6.17142857,61.5714286 C6.17142857,61.0571429 6.51428571,60.9714286 6.68571429,61.0571429 Z M6.42857143,62.3428571 L6.42857143,63.627381 C6.25714286,63.5440476 6.17142857,63.3714286 6.17142857,63.1130952 C6.17142857,62.6 6.25714286,62.4285714 6.42857143,62.3428571 Z M7.8,61.0571429 L7.8,61.3142857 C7.8,61.6571429 7.71428571,61.9142857 7.71428571,62.1714286 C7.54285714,62.1714286 7.45714286,62 7.45714286,61.7428571 C7.45714286,61.2285714 7.62857143,61.1428571 7.8,61.0571429 Z M7.71428571,62.6857143 L7.71428571,63.7988095 C7.54285714,63.7988095 7.45714286,63.627381 7.37142857,63.3714286 C7.37142857,62.9428571 7.54285714,62.7714286 7.71428571,62.6857143 Z M7.11428571,63.0285714 L7.11428571,64.3130952 C6.94285714,64.3130952 6.85714286,64.1440476 6.77142857,63.7988095 C6.77142857,63.2857143 6.94285714,63.1130952 7.11428571,63.0285714 Z M9.17142857,61.8285714 L9.17142857,62.7714286 C9.17142857,62.9428571 9.08571429,63.0285714 9.08571429,63.2 C8.91428571,63.1130952 8.82857143,63.0285714 8.74285714,62.6857143 C8.74285714,62.1714286 9,61.9142857 9.17142857,61.8285714 Z M8.65714286,63.2 L8.65714286,64.3988095 C8.48571429,64.3988095 8.31428571,64.2297619 8.31428571,63.9714286 C8.31428571,63.4571429 8.48571429,63.2857143 8.65714286,63.2 Z M11.7428571,62.2571429 C11.8285714,62.6 11.9142857,62.9428571 11.8285714,63.2857143 C11.5714286,63.2857143 11.4,63.1130952 11.4,62.8571429 C11.3142857,62.4285714 11.4857143,62.3428571 11.7428571,62.2571429 Z M10.9714286,63.2 C11.1428571,63.3714286 11.2285714,63.7130952 11.1428571,63.9714286 C10.9714286,63.9714286 10.8857143,63.8857143 10.8,63.7130952 C10.7142857,63.3714286 10.8,63.2 10.9714286,63.2 Z M10.3714286,63.627381 C10.4571429,63.8857143 10.4571429,64.1440476 10.4571429,64.3988095 C10.3714286,64.3988095 10.2857143,64.3130952 10.2,64.1440476 C10.1142857,63.7988095 10.2,63.7130952 10.3714286,63.627381 Z M9.17142857,63.7130952 C9.25714286,63.9714286 9.25714286,64.2297619 9.17142857,64.4857143 C9,64.4857143 8.91428571,64.3988095 8.91428571,64.1440476 C8.91428571,63.7988095 9.08571429,63.7130952 9.17142857,63.7130952 Z M11.0571429,61.6571429 C11.0571429,61.9142857 11.1428571,62.2571429 11.0571429,62.5142857 C10.8857143,62.5142857 10.8,62.4285714 10.7142857,62.1714286 C10.7142857,61.8285714 10.8857143,61.6571429 11.0571429,61.6571429 Z M10.4571429,62.5142857 C10.5428571,62.7714286 10.5428571,63.1130952 10.4571429,63.3714286 C10.2857143,63.3714286 10.2,63.2857143 10.1142857,63.0285714 C10.1142857,62.6857143 10.2857143,62.5142857 10.4571429,62.5142857 Z M9.85714286,62.8571429 L9.85714286,64.1440476 C9.6,64.1440476 9.51428571,63.9714286 9.51428571,63.627381 C9.51428571,63.1130952 9.68571429,62.9428571 9.85714286,62.8571429 Z M9.77142857,61.1428571 L9.77142857,62.4285714 C9.6,62.4285714 9.51428571,62.2571429 9.42857143,61.9142857 C9.42857143,61.4 9.6,61.2285714 9.77142857,61.1428571 Z M8.82857143,60.9714286 L8.82857143,61.7428571 C8.65714286,61.7428571 8.65714286,61.6571429 8.57142857,61.4857143 C8.57142857,61.1428571 8.65714286,61.0571429 8.82857143,60.9714286 Z M8.4,62 C8.4,62.3428571 8.4,62.7714286 8.31428571,63.1130952 C8.14285714,63.1130952 8.05714286,62.9428571 8.05714286,62.6857143 C8.05714286,62.1714286 8.22857143,62.0857143 8.4,62 Z M7.11428571,61.5714286 L7.11428571,62.6857143 C6.94285714,62.6857143 6.85714286,62.5142857 6.77142857,62.2571429 C6.77142857,61.7428571 6.94285714,61.6571429 7.11428571,61.5714286 Z M5.91428571,61.2285714 L5.91428571,62.4285714 C5.74285714,62.4285714 5.65714286,62.2571429 5.57142857,61.9142857 C5.57142857,61.4857143 5.74285714,61.3142857 5.91428571,61.2285714 Z M5.31428571,62 L5.31428571,63.1130952 C5.14285714,63.1130952 4.97142857,62.9428571 4.97142857,62.6857143 C4.97142857,62.1714286 5.14285714,62.0857143 5.31428571,62 Z M9.42857143,60.9714286 C9.34285714,61.1428571 9.25714286,61.3142857 9.25714286,61.5714286 C9.08571429,61.4857143 9.08571429,61.4857143 9.08571429,61.3142857 C9.17142857,61.0571429 9.25714286,60.9714286 9.42857143,60.9714286 Z M8.31428571,60.8857143 C8.31428571,61.1428571 8.22857143,61.4857143 8.14285714,61.7428571 C8.05714286,61.7428571 7.97142857,61.6571429 8.05714286,61.4 C8.14285714,61.0571429 8.22857143,60.9714286 8.31428571,60.8857143 Z M7.28571429,60.8 C7.2,60.9714286 7.11428571,61.1428571 7.11428571,61.3142857 C7.02857143,61.3142857 6.94285714,61.2285714 6.94285714,61.0571429 C7.02857143,60.8857143 7.2,60.8 7.28571429,60.8 Z M8.05714286,63.627381 L8.05714286,64.3988095 C7.97142857,64.3988095 7.97142857,64.3130952 7.97142857,64.0571429 C7.97142857,63.7988095 7.97142857,63.7130952 8.05714286,63.627381 Z M7.62857143,64.1440476 L7.62857143,64.9130952 C7.45714286,64.9130952 7.45714286,64.7428571 7.37142857,64.5714286 C7.45714286,64.2297619 7.54285714,64.2297619 7.62857143,64.1440476 Z M6.77142857,64.2297619 C6.85714286,64.3988095 6.94285714,64.5714286 6.94285714,64.7428571 C6.85714286,64.7428571 6.77142857,64.7428571 6.68571429,64.6571429 C6.6,64.3988095 6.68571429,64.3130952 6.77142857,64.2297619 Z M6.25714286,64.0571429 L6.25714286,64.5714286 C6.17142857,64.5714286 6.08571429,64.4857143 6.08571429,64.3988095 C6,64.1440476 6.08571429,64.1440476 6.25714286,64.0571429 Z M4.97142857,63.2 C4.97142857,63.2857143 5.05714286,63.4571429 5.05714286,63.627381 C4.97142857,63.7130952 4.88571429,63.627381 4.8,63.4571429 C4.8,63.2857143 4.88571429,63.2 4.97142857,63.2 Z M4.71428571,62.5142857 L4.71428571,63.0285714 C4.62857143,63.0285714 4.54285714,62.9428571 4.54285714,62.7714286 C4.54285714,62.6 4.62857143,62.5142857 4.71428571,62.5142857 Z M3.94285714,62.5142857 C4.02857143,62.4285714 4.11428571,62.5142857 4.2,62.5142857 C4.2,62.2571429 4.2,61.9142857 4.28571429,61.7428571 C4.54285714,61.5714286 4.71428571,61.4857143 4.88571429,61.5714286 C4.8,61.0571429 5.05714286,60.8857143 5.48571429,60.9714286 C5.48571429,60.2857143 5.74285714,60.3714286 6.08571429,60.6285714 C6.08571429,60.1142857 6.25714286,59.9428571 6.68571429,60.4571429 C6.77142857,60.2857143 6.85714286,60.1142857 6.94285714,59.9428571 C7.02857143,59.8571429 7.02857143,59.8571429 7.11428571,59.9428571 C7.2,60.0285714 7.28571429,60.1142857 7.28571429,60.2857143 C7.45714286,60.2857143 7.45714286,60.3714286 7.54285714,60.4571429 C7.62857143,60.4571429 7.62857143,60.4571429 7.62857143,60.2857143 C7.8,60.0285714 7.88571429,60.1142857 7.97142857,60.2857143 C7.97142857,60.3714286 8.05714286,60.3714286 8.05714286,60.4571429 C8.05714286,60.2857143 8.14285714,60.2 8.14285714,60.0285714 C8.22857143,59.9428571 8.31428571,60.0285714 8.31428571,60.1142857 C8.4,60.2857143 8.4,60.3714286 8.4,60.5428571 C8.48571429,60.5428571 8.57142857,60.4571429 8.65714286,60.3714286 C8.82857143,60.2 8.91428571,60.3714286 9,60.5428571 C9,60.6285714 9.08571429,60.7142857 9.08571429,60.7142857 C9.25714286,60.8 9.34285714,60.6285714 9.42857143,60.5428571 C9.68571429,60.3714286 9.77142857,60.5428571 9.77142857,60.8 C9.85714286,60.8 10.0285714,60.8 10.1142857,60.9714286 C10.2,60.7142857 10.3714286,60.6285714 10.6285714,60.6285714 C10.6285714,60.8 10.6285714,60.8857143 10.7142857,61.0571429 L10.8857143,61.0571429 L10.8857143,61.3142857 C10.9714286,61.3142857 11.0571429,61.2285714 11.1428571,61.0571429 C11.2285714,60.9714286 11.3142857,61.0571429 11.3142857,61.1428571 L11.3142857,61.4 L11.4857143,61.4 C11.5714286,61.4 11.6571429,61.3142857 11.8285714,61.3142857 C12,61.4 12,61.5714286 12,61.6571429 L12.4285714,61.6571429 C12.7714286,61.7428571 12.7714286,61.9142857 12.6857143,62.0857143 C12.6,62.1714286 12.6,62.1714286 12.5142857,62.2571429 L12.9428571,62.2571429 C13.1142857,62.3428571 13.1142857,62.5142857 13.0285714,62.7714286 C12.9428571,62.8571429 12.7714286,62.8571429 12.6857143,62.9428571 C12.7714286,63.4571429 12.5142857,63.627381 12.1714286,63.5440476 C12.1714286,64.0571429 12.1714286,64.3130952 11.7428571,64.0571429 C11.6571429,64.0571429 11.4857143,64.0571429 11.4,63.9714286 C11.4,64.4857143 11.2285714,64.5714286 10.9714286,64.3130952 C10.9714286,64.5714286 10.8857143,64.6571429 10.7142857,64.5714286 C10.6285714,64.9988095 10.3714286,64.8297619 10.1142857,64.7428571 C10.1142857,64.8297619 10.0285714,64.9130952 10.0285714,64.9988095 C9.85714286,65.2571429 9.68571429,65.0857143 9.51428571,64.9130952 C9.42857143,64.9988095 9.34285714,64.9988095 9.25714286,64.9988095 L9.17142857,64.9130952 C9.08571429,65.2571429 8.82857143,65.2571429 8.57142857,65.0857143 C8.4,64.9988095 8.4,65.1714286 8.4,65.2571429 C8.22857143,65.4297619 8.14285714,65.3428571 8.05714286,65.2571429 C8.05714286,65.1714286 7.97142857,65.0857143 7.8,65.1714286 C7.54285714,65.1714286 7.45714286,65.2571429 7.37142857,65.5988095 C7.28571429,65.7714286 7.2,65.7714286 7.11428571,65.5130952 C7.11428571,65.3428571 7.02857143,65.2571429 7.02857143,65.0857143 C6.94285714,65.0857143 6.94285714,65.1714286 6.85714286,65.2571429 C6.6,65.6845238 6.51428571,65.4297619 6.42857143,65.0857143 C6.17142857,65.1714286 6,65.0857143 5.82857143,64.9130952 C5.74285714,64.9988095 5.74285714,64.9988095 5.74285714,65.0857143 C5.48571429,65.1714286 5.48571429,65.0857143 5.4,64.9130952 C5.4,64.8297619 5.4,64.6571429 5.31428571,64.5714286 C5.22857143,64.7428571 5.14285714,64.8297619 5.05714286,64.8297619 C4.8,64.9130952 4.71428571,64.7428571 4.8,64.4857143 C4.88571429,64.3988095 4.88571429,64.3130952 4.97142857,64.1440476 C4.88571429,63.9714286 4.8,64.0571429 4.71428571,64.0571429 C4.54285714,64.0571429 4.54285714,63.8857143 4.54285714,63.627381 L4.54285714,63.5440476 C4.37142857,63.627381 4.2,63.627381 4.11428571,63.5440476 L4.11428571,63.0285714 C3.94285714,63.2 3.85714286,62.6857143 3.94285714,62.5142857 L3.94285714,62.5142857 Z" id="Fill-56" fill="#FFFFFF"></path>
                <path d="M119.228571,62.9428571 L119.228571,64.2297619 C119.485714,64.2297619 119.657143,64.0571429 119.657143,63.7130952 C119.657143,63.1130952 119.485714,62.9428571 119.228571,62.9428571 Z M118.371429,61.0571429 C118.714286,61.4857143 118.628571,61.6571429 118.628571,62.0857143 C118.8,62.0857143 118.885714,61.9142857 118.885714,61.5714286 C118.885714,61.0571429 118.542857,60.9714286 118.371429,61.0571429 Z M118.628571,62.3428571 L118.628571,63.627381 C118.8,63.5440476 118.885714,63.3714286 118.885714,63.1130952 C118.885714,62.6 118.8,62.4285714 118.628571,62.3428571 Z M117.257143,61.0571429 L117.257143,61.3142857 C117.257143,61.6571429 117.257143,61.9142857 117.342857,62.1714286 C117.514286,62.1714286 117.6,62 117.6,61.7428571 C117.6,61.2285714 117.428571,61.1428571 117.257143,61.0571429 Z M117.342857,62.6857143 L117.342857,63.7988095 C117.514286,63.7988095 117.6,63.627381 117.684524,63.3714286 C117.684524,62.9428571 117.514286,62.7714286 117.342857,62.6857143 Z M117.942857,63.0285714 L117.942857,64.3130952 C118.114286,64.3130952 118.2,64.1440476 118.285714,63.7988095 C118.285714,63.2857143 118.114286,63.1130952 117.942857,63.0285714 Z M115.885714,61.8285714 L115.885714,62.7714286 C115.885714,62.9428571 115.971429,63.0285714 115.971429,63.2 C116.142857,63.1130952 116.228571,63.0285714 116.314286,62.6857143 C116.314286,62.1714286 116.057143,61.9142857 115.885714,61.8285714 Z M116.39881,63.2 L116.39881,64.3988095 C116.571429,64.3988095 116.657143,64.2297619 116.742857,63.9714286 C116.742857,63.4571429 116.571429,63.2857143 116.39881,63.2 Z M113.314286,62.2571429 C113.228571,62.6 113.142857,62.9428571 113.228571,63.2857143 C113.485714,63.2857143 113.571429,63.1130952 113.657143,62.8571429 C113.742857,62.4285714 113.485714,62.3428571 113.314286,62.2571429 Z M114.085714,63.2 C113.913095,63.3714286 113.828571,63.7130952 113.828571,63.9714286 C114.085714,63.9714286 114.171429,63.8857143 114.257143,63.7130952 C114.342857,63.3714286 114.171429,63.2 114.085714,63.2 Z M114.685714,63.627381 C114.6,63.8857143 114.513095,64.1440476 114.6,64.3988095 C114.685714,64.3988095 114.771429,64.3130952 114.855952,64.1440476 C114.942857,63.7988095 114.855952,63.7130952 114.685714,63.627381 Z M115.885714,63.7130952 C115.79881,63.9714286 115.79881,64.2297619 115.885714,64.4857143 C115.971429,64.4857143 116.057143,64.3988095 116.142857,64.1440476 C116.142857,63.7988095 115.971429,63.7130952 115.885714,63.7130952 Z M114,61.6571429 C113.913095,61.9142857 113.913095,62.2571429 114,62.5142857 C114.171429,62.5142857 114.257143,62.4285714 114.257143,62.1714286 C114.257143,61.8285714 114.171429,61.6571429 114,61.6571429 Z M114.513095,62.5142857 C114.513095,62.7714286 114.513095,63.1130952 114.6,63.3714286 C114.771429,63.3714286 114.855952,63.2857143 114.942857,63.0285714 C114.942857,62.6857143 114.771429,62.5142857 114.513095,62.5142857 Z M115.2,62.8571429 L115.2,64.1440476 C115.457143,64.1440476 115.542857,63.9714286 115.542857,63.627381 C115.542857,63.1130952 115.371429,62.9428571 115.2,62.8571429 Z M115.285714,61.1428571 L115.285714,62.4285714 C115.457143,62.4285714 115.542857,62.2571429 115.628571,61.9142857 C115.628571,61.4 115.457143,61.2285714 115.285714,61.1428571 Z M116.228571,60.9714286 L116.228571,61.7428571 C116.39881,61.7428571 116.39881,61.6571429 116.485714,61.4857143 C116.485714,61.1428571 116.314286,61.0571429 116.228571,60.9714286 Z M116.657143,62 L116.657143,63.1130952 C116.828571,63.1130952 117,62.9428571 117,62.6857143 C117,62.1714286 116.828571,62.0857143 116.657143,62 Z M117.942857,61.5714286 L117.942857,62.6857143 C118.114286,62.6857143 118.2,62.5142857 118.285714,62.2571429 C118.285714,61.7428571 118.114286,61.6571429 117.942857,61.5714286 Z M119.142857,61.2285714 L119.142857,62.4285714 C119.314286,62.4285714 119.4,62.2571429 119.485714,61.9142857 C119.485714,61.4857143 119.314286,61.3142857 119.142857,61.2285714 Z M119.742857,62 L119.742857,63.1130952 C119.913095,63.1130952 120.085714,62.9428571 120.085714,62.6857143 C120.085714,62.1714286 119.913095,62.0857143 119.742857,62 Z M115.628571,60.9714286 C115.714286,61.1428571 115.714286,61.3142857 115.79881,61.5714286 C115.885714,61.4857143 115.971429,61.4857143 115.971429,61.3142857 C115.885714,61.0571429 115.714286,60.9714286 115.628571,60.9714286 Z M116.742857,60.8857143 C116.742857,61.1428571 116.828571,61.4857143 116.914286,61.7428571 C117,61.7428571 117.085714,61.6571429 117,61.4 C116.914286,61.0571429 116.828571,60.9714286 116.742857,60.8857143 Z M117.771429,60.8 C117.857143,60.9714286 117.857143,61.1428571 117.942857,61.3142857 C118.028571,61.3142857 118.114286,61.2285714 118.114286,61.0571429 C118.028571,60.8857143 117.857143,60.8 117.771429,60.8 Z M117,63.627381 L117,64.3988095 C117.085714,64.3988095 117.085714,64.3130952 117.085714,64.0571429 C117.085714,63.7988095 117,63.7130952 117,63.627381 Z M117.428571,64.1440476 L117.428571,64.9130952 C117.514286,64.9130952 117.6,64.7428571 117.6,64.5714286 C117.6,64.2297619 117.514286,64.2297619 117.428571,64.1440476 Z M118.285714,64.2297619 C118.2,64.3988095 118.114286,64.5714286 118.114286,64.7428571 C118.2,64.7428571 118.285714,64.7428571 118.371429,64.6571429 C118.457143,64.3988095 118.371429,64.3130952 118.285714,64.2297619 Z M118.8,64.0571429 L118.8,64.5714286 C118.885714,64.5714286 118.971429,64.4857143 118.971429,64.3988095 C118.971429,64.1440476 118.885714,64.1440476 118.8,64.0571429 Z M120.085714,63.2 C120,63.2857143 120,63.4571429 120,63.627381 C120.085714,63.7130952 120.171429,63.627381 120.257143,63.4571429 C120.257143,63.2857143 120.171429,63.2 120.085714,63.2 Z M120.342857,62.5142857 L120.342857,63.0285714 C120.428571,63.0285714 120.513095,62.9428571 120.513095,62.7714286 C120.513095,62.6 120.428571,62.5142857 120.342857,62.5142857 Z M121.114286,62.5142857 C121.028571,62.4285714 120.942857,62.5142857 120.855952,62.5142857 C120.855952,62.2571429 120.855952,61.9142857 120.771429,61.7428571 C120.513095,61.5714286 120.342857,61.4857143 120.171429,61.5714286 C120.257143,61.0571429 120,60.8857143 119.570238,60.9714286 C119.570238,60.2857143 119.314286,60.3714286 118.971429,60.6285714 C118.971429,60.1142857 118.8,59.9428571 118.371429,60.4571429 C118.285714,60.2857143 118.2,60.1142857 118.114286,59.9428571 C118.028571,59.8571429 117.942857,59.8571429 117.857143,59.9428571 C117.857143,60.0285714 117.771429,60.1142857 117.771429,60.2857143 C117.6,60.2857143 117.6,60.3714286 117.514286,60.4571429 C117.428571,60.4571429 117.342857,60.4571429 117.428571,60.2857143 C117.257143,60.0285714 117.171429,60.1142857 117.085714,60.2857143 C117,60.3714286 117,60.3714286 117,60.4571429 C117,60.2857143 116.914286,60.2 116.914286,60.0285714 C116.828571,59.9428571 116.742857,60.0285714 116.657143,60.1142857 L116.657143,60.5428571 C116.571429,60.5428571 116.485714,60.4571429 116.39881,60.3714286 C116.228571,60.2 116.142857,60.3714286 116.057143,60.5428571 C116.057143,60.6285714 115.971429,60.7142857 115.971429,60.7142857 C115.79881,60.8 115.714286,60.6285714 115.628571,60.5428571 C115.371429,60.3714286 115.285714,60.5428571 115.285714,60.8 C115.2,60.8 115.028571,60.8 114.942857,60.9714286 C114.771429,60.7142857 114.685714,60.6285714 114.428571,60.6285714 C114.428571,60.8 114.428571,60.8857143 114.342857,61.0571429 L114.171429,61.0571429 L114.171429,61.3142857 C114.085714,61.3142857 114,61.2285714 113.913095,61.0571429 C113.828571,60.9714286 113.742857,61.0571429 113.742857,61.1428571 L113.742857,61.4 L113.571429,61.4 C113.485714,61.4 113.4,61.3142857 113.228571,61.3142857 C113.057143,61.4 113.057143,61.5714286 113.057143,61.6571429 L112.627381,61.6571429 C112.285714,61.7428571 112.285714,61.9142857 112.371429,62.0857143 C112.371429,62.1714286 112.457143,62.1714286 112.542857,62.2571429 L112.114286,62.2571429 C111.942857,62.3428571 111.942857,62.5142857 112.028571,62.7714286 C112.114286,62.8571429 112.2,62.8571429 112.371429,62.9428571 C112.285714,63.4571429 112.542857,63.627381 112.885714,63.5440476 C112.885714,64.0571429 112.885714,64.3130952 113.314286,64.0571429 C113.4,64.0571429 113.571429,64.0571429 113.657143,63.9714286 C113.657143,64.4857143 113.828571,64.5714286 114.085714,64.3130952 C114.085714,64.5714286 114.171429,64.6571429 114.342857,64.5714286 C114.428571,64.9988095 114.685714,64.8297619 114.942857,64.7428571 C114.942857,64.8297619 114.942857,64.9130952 115.028571,64.9988095 C115.2,65.2571429 115.371429,65.0857143 115.542857,64.9130952 C115.628571,64.9988095 115.714286,64.9988095 115.79881,64.9988095 L115.885714,64.9130952 C115.971429,65.2571429 116.228571,65.2571429 116.485714,65.0857143 C116.657143,64.9988095 116.657143,65.1714286 116.657143,65.2571429 C116.828571,65.4297619 116.914286,65.3428571 117,65.2571429 C117,65.1714286 117.085714,65.0857143 117.257143,65.1714286 C117.428571,65.1714286 117.6,65.2571429 117.684524,65.5988095 C117.771429,65.7714286 117.857143,65.7714286 117.942857,65.5130952 C117.942857,65.3428571 117.942857,65.2571429 118.028571,65.0857143 C118.114286,65.0857143 118.114286,65.1714286 118.2,65.2571429 C118.371429,65.6845238 118.542857,65.4297619 118.628571,65.0857143 C118.885714,65.1714286 119.057143,65.0857143 119.228571,64.9130952 C119.228571,64.9988095 119.314286,64.9988095 119.314286,65.0857143 C119.485714,65.1714286 119.570238,65.0857143 119.657143,64.9130952 C119.657143,64.8297619 119.657143,64.6571429 119.742857,64.5714286 C119.828571,64.7428571 119.913095,64.8297619 120,64.8297619 C120.257143,64.9130952 120.257143,64.7428571 120.257143,64.4857143 C120.171429,64.3988095 120.171429,64.3130952 120.085714,64.1440476 C120.171429,63.9714286 120.257143,64.0571429 120.342857,64.0571429 C120.513095,64.0571429 120.513095,63.8857143 120.513095,63.627381 L120.513095,63.5440476 C120.685714,63.627381 120.855952,63.627381 120.942857,63.5440476 L120.942857,63.0285714 C121.114286,63.2 121.2,62.6857143 121.114286,62.5142857 L121.114286,62.5142857 Z" id="Fill-57" fill="#FFFFFF"></path>
                <path d="M54,25.0571429 C56.7428571,28.1428571 59.1428571,31.3142857 61.0285714,34.4 C61.7142857,36.5428571 61.4571429,37.3142857 60.1714286,36.7142857 C58.9714286,36.8 57.6,35.8571429 56.1428571,34.8285714 C58.4571429,37.2285714 60.8571429,39.6285714 62.5714286,42.0285714 C63.8571429,44.0857143 63.9428571,45.4571429 61.8857143,44.8571429 C59.8285714,43.4857143 57.8571429,42.2 55.8,40.8285714 C55.1142857,40.4 54.7714286,40.4857143 55.0285714,41.1714286 C58.1142857,44.3428571 61.6285714,47.1714286 64.2857143,51.1142857 C65.3142857,53.0857143 65.1428571,54.1142857 62.5714286,53.1714286 C59.9142857,51.8 57.1714286,50.4285714 54.4285714,49.0571429 C53.4857143,48.7142857 53.2285714,48.8857143 53.7428571,49.5714286 C58.4571429,52.9142857 62.7428571,56.2571429 66.1714286,59.8571429 C67.0285714,61.4 66.6857143,61.9142857 65.2285714,61.4857143 C61.9714286,59.6857143 58.6285714,57.8857143 55.2857143,56.0857143 C54.5142857,56.0857143 54.3428571,56.4285714 55.0285714,57.2 C59.3142857,60.4571429 64.2857143,63.3714286 67.2857143,67.1428571 C68.7428571,69.1142857 68.1428571,70.7416667 66.3428571,69.4559524 C62.6571429,67.2285714 59.0571429,65.1714286 55.6285714,63.5440476 C55.1142857,63.5440476 55.0285714,63.7130952 55.4571429,64.2297619 C60.0857143,67.7428571 65.6571429,70.9142857 69.0857143,75.2857143 C70.3714286,77.2571429 69.8571429,77.9428571 67.8845238,77.4297619 C62.5714286,74.2583333 57.3428571,71.0869048 52.0285714,68.5142857 C51.4285714,68.6845238 51.2571429,69.0285714 51.6,69.6285714 C57.1714286,73.227381 62.5714286,76.9130952 67.3714286,80.7702381 C68.8285714,82.6559524 68.7428571,83.8559524 66.0857143,83.6 C59.4,79.8285714 52.9714286,75.9714286 46.2857143,72.972619 C44.5714286,72.372619 44.4857143,72.627381 46.0285714,73.6583333 C52.1142857,77.4297619 58.2857143,81.0285714 63.9428571,85.572619 C66,88.1440476 65.0571429,88.5714286 62.7428571,87.9714286 C59.4857143,86.6857143 56.4857143,85.3142857 53.6571429,83.8559524 C55.2,84.972619 56.1428571,86.5142857 55.9714286,89.3428571 C55.8,91.9988095 55.7142857,94.5702381 55.6285714,97.227381 C53.6571429,99.4571429 51.8571429,98.6 51.0857143,96.8 C51.1714286,94.1428571 51.5142857,91.4845238 51.0857143,88.827381 C51,87.5440476 50.3142857,86.1714286 48.3428571,84.7142857 C43.4571429,82.5702381 39,80.0845238 34.7142857,77.4297619 C32.1428571,75.2 33.8571429,73.5714286 36.2571429,74.6857143 C41.2285714,76.7428571 45.6857143,79.1428571 50.0571429,81.5428571 C50.9142857,81.8869048 50.9142857,81.5428571 50.7428571,81.0285714 C45.0857143,77.6857143 39.0857143,74.6 34.3714286,69.8 C32.3142857,67.4845238 34.3714286,66.4571429 35.8285714,66.8845238 C40.6285714,68.7702381 45.4285714,70.7416667 50.2285714,72.627381 C50.4857143,72.627381 50.5714286,72.372619 50.3142857,72.0285714 C45.6,69.2011905 41.0571429,66.1154762 36.7714286,62.8571429 C35.1428571,61.3142857 35.7428571,59.9428571 38.1428571,60.3714286 C42.7714286,62.2571429 47.1428571,64.3988095 51.4285714,66.7154762 C52.0285714,66.9714286 52.2,66.6285714 51.9428571,65.9428571 C47.6571429,62.6857143 43.4571429,59.7714286 39.2571429,56.6 C37.1142857,54.5428571 38.7428571,53.8571429 40.5428571,54.3714286 C45.6857143,55.9142857 49.8857143,58.6571429 53.9142857,61.3142857 C54,61.1428571 54.1714286,60.9714286 54.2571429,60.7142857 C50.0571429,57.3714286 45.8571429,54.0285714 41.6571429,50.6857143 C39.9428571,48.7142857 40.6285714,47.5142857 43.0285714,48.3714286 C46.2857143,50.0857143 49.5428571,51.8857143 52.8,53.6 C53.4857143,53.9428571 53.6571429,53.7714286 53.4,53 C50.1428571,49.8285714 46.4571429,46.5714286 43.8,43.4 C42.5142857,41.4285714 43.7142857,40.4857143 45.5142857,41.0857143 C48.8571429,42.8857143 52.2,44.7714286 55.5428571,46.6571429 C55.9714286,47 56.0571429,46.6571429 55.8,45.7142857 C52.6285714,43.1428571 49.6285714,39.9714286 46.6285714,36.8857143 C45.2571429,34.9142857 46.5428571,34.1428571 48,34.5714286 C50.1428571,36.1142857 52.2857143,37.4 54.4285714,38.4285714 C55.1142857,38.8571429 55.2857143,38.6 55.0285714,37.7428571 C52.8857143,35.2571429 50.7428571,32.7714286 48.6857143,30.2857143 C48,28.9142857 48.5142857,28.4857143 50.1428571,28.9142857 C52.4571429,30.1142857 54.6857143,31.7428571 56.1428571,32.9428571 C56.4857143,32.0857143 53.8285714,28.0571429 52.1142857,25.8285714 C51.5142857,23.4285714 52.1142857,23.1714286 54,25.0571429" id="Fill-58" fill="#A59F81"></path>
                <path d="M64.5428571,25.0571429 C67.2,28.1428571 69.6857143,31.3142857 71.4857143,34.4 C72.1714286,36.5428571 71.9142857,37.3142857 70.6285714,36.7142857 C69.5142857,36.8 68.0571429,35.8571429 66.6,34.8285714 C68.9142857,37.2285714 71.3142857,39.6285714 73.1142857,42.0285714 C74.4,44.0857143 74.4,45.4571429 72.3428571,44.8571429 C70.3714286,43.4857143 68.3142857,42.2 66.3428571,40.8285714 C65.5714286,40.4 65.3142857,40.4857143 65.4857143,41.1714286 C68.6571429,44.3428571 72.0857143,47.1714286 74.7428571,51.1142857 C75.7714286,53.0857143 75.6857143,54.1142857 73.1142857,53.1714286 C70.3714286,51.8 67.6285714,50.4285714 64.9714286,49.0571429 C63.9428571,48.7142857 63.7714286,48.8857143 64.2,49.5714286 C69,52.9142857 73.2,56.2571429 76.7130952,59.8571429 C77.4857143,61.4 77.1428571,61.9142857 75.7714286,61.4857143 C72.4285714,59.6857143 69.0857143,57.8857143 65.8285714,56.0857143 C64.9714286,56.0857143 64.8857143,56.4285714 65.4857143,57.2 C69.8571429,60.4571429 74.7428571,63.3714286 77.7428571,67.1428571 C79.2,69.1142857 78.5988095,70.7416667 76.8,69.4559524 C73.2,67.2285714 69.6,65.1714286 66.0857143,63.5440476 C65.5714286,63.5440476 65.4857143,63.7130952 65.9142857,64.2297619 C70.5428571,67.7428571 76.1142857,70.9142857 79.5428571,75.2857143 C80.8285714,77.2571429 80.3142857,77.9428571 78.3428571,77.4297619 C73.1142857,74.2583333 67.8,71.0869048 62.4857143,68.5142857 C61.8857143,68.6845238 61.7142857,69.0285714 62.0571429,69.6285714 C67.7142857,73.227381 73.1142857,76.9130952 77.8285714,80.7702381 C79.2857143,82.6559524 79.2857143,83.8559524 76.5428571,83.6 C69.8571429,79.8285714 63.4285714,75.9714286 56.8285714,72.972619 C55.1142857,72.372619 55.0285714,72.627381 56.4857143,73.6583333 C62.5714286,77.4297619 68.7428571,81.0285714 74.4857143,85.572619 C76.4571429,88.1440476 75.5142857,88.5714286 73.2,87.9714286 C69.9428571,86.6857143 67.0285714,85.3142857 64.1130952,83.8559524 C65.6571429,84.972619 66.6857143,86.5142857 66.4285714,89.3428571 C66.3428571,91.9988095 66.2571429,94.5702381 66.0857143,97.227381 C64.1130952,99.4571429 62.4,98.6 61.5428571,96.8 C61.7142857,94.1428571 61.9714286,91.4845238 61.5428571,88.827381 C61.4571429,87.5440476 60.8571429,86.1714286 58.8,84.7142857 C54,82.5702381 49.5428571,80.0845238 45.1714286,77.4297619 C42.6,75.2 44.4,73.5714286 46.7142857,74.6857143 C51.7714286,76.7428571 56.1428571,79.1428571 60.5142857,81.5428571 C61.3714286,81.8869048 61.3714286,81.5428571 61.2857143,81.0285714 C55.5428571,77.6857143 49.6285714,74.6 44.8285714,69.8 C42.8571429,67.4845238 44.8285714,66.4571429 46.3714286,66.8845238 C51.1714286,68.7702381 55.8857143,70.7416667 60.6857143,72.627381 C61.0285714,72.627381 61.0285714,72.372619 60.8571429,72.0285714 C56.0571429,69.2011905 51.5142857,66.1154762 47.2285714,62.8571429 C45.6,61.3142857 46.2857143,59.9428571 48.6857143,60.3714286 C53.2285714,62.2571429 57.6,64.3988095 61.8857143,66.7154762 C62.5714286,66.9714286 62.7428571,66.6285714 62.4,65.9428571 C58.2,62.6857143 53.9142857,59.7714286 49.7142857,56.6 C47.6571429,54.5428571 49.2,53.8571429 51,54.3714286 C56.2285714,55.9142857 60.3428571,58.6571429 64.4571429,61.3142857 C64.5428571,61.1428571 64.6285714,60.9714286 64.7142857,60.7142857 C60.5142857,57.3714286 56.3142857,54.0285714 52.1142857,50.6857143 C50.4,48.7142857 51.0857143,47.5142857 53.4857143,48.3714286 C56.7428571,50.0857143 60,51.8857143 63.2571429,53.6 C63.9428571,53.9428571 64.2,53.7714286 63.8571429,53 C60.6,49.8285714 56.9142857,46.5714286 54.2571429,43.4 C53.0571429,41.4285714 54.1714286,40.4857143 55.9714286,41.0857143 C59.3142857,42.8857143 62.6571429,44.7714286 66,46.6571429 C66.4285714,47 66.5142857,46.6571429 66.3428571,45.7142857 C63.0857143,43.1428571 60.1714286,39.9714286 57.0857143,36.8857143 C55.8,34.9142857 57,34.1428571 58.4571429,34.5714286 C60.6857143,36.1142857 62.827381,37.4 64.9714286,38.4285714 C65.5714286,38.8571429 65.7428571,38.6 65.4857143,37.7428571 C63.3428571,35.2571429 61.2857143,32.7714286 59.1428571,30.2857143 C58.4571429,28.9142857 58.9714286,28.4857143 60.6,28.9142857 C62.9142857,30.1142857 65.1428571,31.7428571 66.6,32.9428571 C67.0285714,32.0857143 64.3714286,28.0571429 62.6571429,25.8285714 C61.9714286,23.4285714 62.6571429,23.1714286 64.5428571,25.0571429" id="Fill-59" fill="#D5D0BE"></path>
                <path d="M75,25.0571429 C77.7428571,28.1428571 80.1428571,31.3142857 82.0285714,34.4 C82.7130952,36.5428571 82.3702381,37.3142857 81.1714286,36.7142857 C79.9714286,36.8 78.5988095,35.8571429 77.1428571,34.8285714 C79.3714286,37.2285714 81.7714286,39.6285714 83.5714286,42.0285714 C84.8571429,44.0857143 84.8571429,45.4571429 82.8,44.8571429 C80.8285714,43.4857143 78.8571429,42.2 76.8,40.8285714 C76.0285714,40.4 75.7714286,40.4857143 75.9428571,41.1714286 C79.1142857,44.3428571 82.5428571,47.1714286 85.2857143,51.1142857 C86.2285714,53.0857143 86.1428571,54.1142857 83.5714286,53.1714286 C80.8285714,51.8 78.1714286,50.4285714 75.4285714,49.0571429 C74.4857143,48.7142857 74.2285714,48.8857143 74.6571429,49.5714286 C79.4571429,52.9142857 83.6559524,56.2571429 87.1714286,59.8571429 C87.9428571,61.4 87.6857143,61.9142857 86.2285714,61.4857143 C82.8857143,59.6857143 79.6285714,57.8857143 76.2857143,56.0857143 C75.4285714,56.0857143 75.3428571,56.4285714 75.9428571,57.2 C80.3142857,60.4571429 85.2,63.3714286 88.2,67.1428571 C89.7428571,69.1142857 89.1428571,70.7416667 87.2571429,69.4559524 C83.6559524,67.2285714 80.0571429,65.1714286 76.6285714,63.5440476 C76.0285714,63.5440476 75.9428571,63.7130952 76.3714286,64.2297619 C81.0857143,67.7428571 86.6571429,70.9142857 90.0857143,75.2857143 C91.3714286,77.2571429 90.7714286,77.9428571 88.8857143,77.4297619 C83.5714286,74.2583333 78.2571429,71.0869048 73.0285714,68.5142857 C72.3428571,68.6845238 72.2571429,69.0285714 72.6,69.6285714 C78.1714286,73.227381 83.5714286,76.9130952 88.3702381,80.7702381 C89.8285714,82.6559524 89.7428571,83.8559524 87,83.6 C80.4,79.8285714 73.9714286,75.9714286 67.2857143,72.972619 C65.5714286,72.372619 65.4857143,72.627381 66.9416667,73.6583333 C73.0285714,77.4297619 79.2,81.0285714 84.9428571,85.572619 C87,88.1440476 85.9714286,88.5714286 83.6559524,87.9714286 C80.4845238,86.6857143 77.4857143,85.3142857 74.5714286,83.8559524 C76.1142857,84.972619 77.1428571,86.5142857 76.8857143,89.3428571 C76.8,91.9988095 76.7130952,94.5702381 76.6285714,97.227381 C74.6571429,99.4571429 72.8571429,98.6 72.0857143,96.8 C72.1714286,94.1428571 72.4285714,91.4845238 72.0857143,88.827381 C72,87.5440476 71.3142857,86.1714286 69.2571429,84.7142857 C64.4571429,82.5702381 60,80.0845238 55.6285714,77.4297619 C53.0571429,75.2 54.8571429,73.5714286 57.2571429,74.6857143 C62.2285714,76.7428571 66.6,79.1428571 70.9714286,81.5428571 C71.8285714,81.8869048 71.8285714,81.5428571 71.7428571,81.0285714 C66,77.6857143 60.0857143,74.6 55.2857143,69.8 C53.3142857,67.4845238 55.2857143,66.4571429 56.8285714,66.8845238 C61.6285714,68.7702381 66.4285714,70.7416667 71.2285714,72.627381 C71.4857143,72.627381 71.4857143,72.372619 71.3142857,72.0285714 C66.6,69.2011905 61.9714286,66.1154762 57.7714286,62.8571429 C56.0571429,61.3142857 56.7428571,59.9428571 59.1428571,60.3714286 C63.7714286,62.2571429 68.0571429,64.3988095 72.3428571,66.7154762 C73.0285714,66.9714286 73.2,66.6285714 72.8571429,65.9428571 C68.6571429,62.6857143 64.4571429,59.7714286 60.1714286,56.6 C58.1142857,54.5428571 59.7428571,53.8571429 61.4571429,54.3714286 C66.6857143,55.9142857 70.8,58.6571429 74.9142857,61.3142857 C75,61.1428571 75.0857143,60.9714286 75.2571429,60.7142857 C71.0559524,57.3714286 66.8571429,54.0285714 62.6571429,50.6857143 C60.9428571,48.7142857 61.5428571,47.5142857 64.0285714,48.3714286 C67.2857143,50.0857143 70.4571429,51.8857143 73.7142857,53.6 C74.4,53.9428571 74.6571429,53.7714286 74.4,53 C71.0559524,49.8285714 67.3714286,46.5714286 64.7142857,43.4 C63.5142857,41.4285714 64.6285714,40.4857143 66.4285714,41.0857143 C69.7702381,42.8857143 73.1142857,44.7714286 76.4571429,46.6571429 C76.8857143,47 77.0571429,46.6571429 76.8,45.7142857 C73.6285714,43.1428571 70.6285714,39.9714286 67.6285714,36.8857143 C66.2571429,34.9142857 67.4571429,34.1428571 69,34.5714286 C71.1428571,36.1142857 73.2857143,37.4 75.4285714,38.4285714 C76.1142857,38.8571429 76.2857143,38.6 75.9428571,37.7428571 C73.8845238,35.2571429 71.7428571,32.7714286 69.6,30.2857143 C69,28.9142857 69.5142857,28.4857143 71.0559524,28.9142857 C73.3714286,30.1142857 75.6,31.7428571 77.0571429,32.9428571 C77.4857143,32.0857143 74.8285714,28.0571429 73.1142857,25.8285714 C72.4285714,23.4285714 73.1142857,23.1714286 75,25.0571429" id="Fill-60" fill="#FFFFFF"></path>
            </g>
        </g>
    </g>
</svg>